<svg xmlns="http://www.w3.org/2000/svg" viewBox="0 0 18 18"><g><path fill="#8795a2" d="m0 6.435h8.46v1.125h-8.46z"/><path fill="#c4cbd2" d="m8.46 170.831v-2.831h-8.46v3.96h8.46z" transform="translate(0 -160.44)"/><path fill="#8795a2" d="m9.585 6.435h8.415v1.125h-8.415z"/><path fill="#c4cbd2" d="m221.415 170.831v-2.831h-8.415v3.96h8.415z" transform="translate(-203.415 -160.44)"/><path fill="#8795a2" d="m0 12.915h8.46v1.125h-8.46z"/><path fill="#c4cbd2" d="m0 314.822v1.138h8.46v-3.96h-8.46z" transform="translate(0 -297.96)"/><path fill="#8795a2" d="m9.585 12.915h8.415v1.125h-8.415z"/><path fill="#c4cbd2" d="m221.415 314.822v-2.822h-8.415v3.96h8.415z" transform="translate(-203.415 -297.96)"/><path fill="#8795a2" d="m18 1.125v-1.125h-18v1.125z"/><path fill="#c4cbd2" d="m18 27.8v-2.8h-18v3.915h18z" transform="translate(0 -23.875)"/></g></svg>