<svg xmlns="http://www.w3.org/2000/svg" viewBox="0 0 500 500"><text x="51.377" y="346.825" fill="#aca793" font-family="Lato" font-weight="600" letter-spacing="0" transform="matrix(.60842152 0 0 .5692076 28.72081 -60.292822)" word-spacing="0" xml:space="preserve"><tspan x="51.377" y="346.825" fill="#aca793" font-family="monospace" font-size="128.78" font-weight="normal">01101100 </tspan><tspan x="51.377" y="507.799" fill="#aca793" font-family="monospace" font-size="128.78" font-weight="normal">01101111 </tspan><tspan x="51.377" y="668.774" fill="#aca793" font-family="monospace" font-size="128.78" font-weight="normal">01110110 </tspan><tspan x="51.377" y="829.749" fill="#aca793" font-family="monospace" font-size="128.78" font-weight="normal">01100101</tspan></text><g fill="#091440"><path d="m231.88 278.06h74.22a50 50 0 0 0 0-100h-23.65l-50.57-43.9h74.22a93.92 93.92 0 0 1 35.38 180.92l58.52 50.78h-67z"/><path d="m268.12 221.95h-74.22a50 50 0 0 0 0 100h23.64l50.57 43.9h-74.21a93.92 93.92 0 0 1 -35.38-180.92l-58.52-50.79h67z"/></g></svg>