<svg xmlns="http://www.w3.org/2000/svg" xmlns:svg="http://www.w3.org/2000/svg" id="svg22629" width="478pt" height="672" version="1.1" viewBox="0 0 478 504"><metadata id="metadata22635"/><g id="g23496"><polygon id="polygon22337" points="474 -500 474 4 -4 4 -4 -500" transform="translate(4,500)" style="fill:#fff;stroke:#000"/><text id="text22339" x="101" y="22.4" font-size="18" style="font-size:18px;font-family:Times,serif;text-anchor:start;fill:#000">dcrdata Module Dependencies</text><g id="node1" class="node" transform="translate(4,500)"><title id="title22341">apitypes</title><path id="path22343" d="m 322,-324 c 0,0 -58,0 -58,0 -6,0 -12,6 -12,12 0,0 0,12 0,12 0,6 6,12 12,12 0,0 58,0 58,0 6,0 12,-6 12,-12 0,0 0,-12 0,-12 0,-6 -6,-12 -12,-12" style="fill:#bdb76b;stroke:#000"/><text id="text22345" x="293" y="-302.3" font-size="14" style="font-size:14px;font-family:Times,serif;text-anchor:middle;fill:#000">api/types</text></g><g id="node10" class="node" transform="translate(4,500)"><title id="title22348">rpcutils</title><path id="path22350" d="m 316.5,-252 c 0,0 -47,0 -47,0 -6,0 -12,6 -12,12 0,0 0,12 0,12 0,6 6,12 12,12 0,0 47,0 47,0 6,0 12,-6 12,-12 0,0 0,-12 0,-12 0,-6 -6,-12 -12,-12" style="fill:#1e90ff;stroke:#000"/><text id="text22352" x="293" y="-230.3" font-size="14" style="font-size:14px;font-family:Times,serif;text-anchor:middle;fill:#000">rpcutils</text></g><g id="edge18" class="edge" transform="translate(4,500)"><title id="title22355">apitypes-&gt;rpcutils</title><path id="path22357" d="m 304.8333,-277.8314 c 0,0 0,25.4181 0,25.4181" style="fill:none;stroke:#20b2aa"/><polygon id="polygon22359" points="308.333 -277.831 301.333 -277.831 304.833 -287.831" style="fill:#20b2aa;stroke:#20b2aa"/></g><g id="node17" class="node" transform="translate(4,500)"><title id="title22362">middleware</title><path id="path22364" d="m 227.5,-252 c 0,0 -77,0 -77,0 -6,0 -12,6 -12,12 0,0 0,12 0,12 0,6 6,12 12,12 0,0 77,0 77,0 6,0 12,-6 12,-12 0,0 0,-12 0,-12 0,-6 -6,-12 -12,-12" style="fill:#3a5fcd;stroke:#000"/><text id="text22366" x="189" y="-230.3" font-size="14" style="font-size:14px;font-family:Times,serif;text-anchor:middle;fill:#000">middleware</text></g><g id="edge1" class="edge" transform="translate(4,500)"><title id="title22369">apitypes-&gt;middleware</title><path id="path22371" d="m 281.1667,-277.5782 c 0,0 0,7.5782 0,7.5782 0,0 -74.1667,0 -74.1667,0 0,0 0,8.7209 0,17.5782" style="fill:none;stroke:#7fffd4"/><polygon id="polygon22373" points="284.667 -277.578 277.667 -277.578 281.167 -287.578" style="fill:#7fffd4;stroke:#7fffd4"/></g><g id="node2" class="node" transform="translate(4,500)"><title id="title22376">mempool</title><path id="path22378" d="m 184,-108 c 0,0 -58,0 -58,0 -6,0 -12,6 -12,12 0,0 0,12 0,12 0,6 6,12 12,12 0,0 58,0 58,0 6,0 12,-6 12,-12 0,0 0,-12 0,-12 0,-6 -6,-12 -12,-12" style="fill:#7fffd4;stroke:#000"/><text id="text22380" x="155" y="-86.3" font-size="14" style="font-size:14px;font-family:Times,serif;text-anchor:middle;fill:#000">mempool</text></g><g id="node3" class="node" transform="translate(4,500)"><title id="title22383">pubsub</title><path id="path22385" d="m 176.5,-36 c 0,0 -45,0 -45,0 -6,0 -12,6 -12,12 0,0 0,12 0,12 0,6 6,12 12,12 0,0 45,0 45,0 6,0 12,-6 12,-12 0,0 0,-12 0,-12 0,-6 -6,-12 -12,-12" style="fill:coral;stroke:#000"/><text id="text22387" x="154" y="-14.3" font-size="14" style="font-size:14px;font-family:Times,serif;text-anchor:middle;fill:#000">pubsub</text></g><g id="edge22" class="edge" transform="translate(4,500)"><title id="title22390">mempool-&gt;pubsub</title><path id="path22392" d="m 154,-61.8314 c 0,0 0,25.4181 0,25.4181" style="fill:none;stroke:#5f9ea0"/><polygon id="polygon22394" points="157.5 -61.831 150.5 -61.831 154 -71.831" style="fill:#5f9ea0;stroke:#5f9ea0"/></g><g id="node4" class="node" transform="translate(4,500)"><title id="title22411">pubsubtypes</title><path id="path22413" d="m 130.5,-180 c 0,0 -89,0 -89,0 -6,0 -12,6 -12,12 0,0 0,12 0,12 0,6 6,12 12,12 0,0 89,0 89,0 6,0 12,-6 12,-12 0,0 0,-12 0,-12 0,-6 -6,-12 -12,-12" style="fill:#ffa07a;stroke:#000"/><text id="text22415" x="86" y="-158.3" font-size="14" style="font-size:14px;font-family:Times,serif;text-anchor:middle;fill:#000">pubsub/types</text></g><g id="edge16" class="edge" transform="translate(4,500)"><title id="title22418">pubsubtypes-&gt;mempool</title><path id="path22420" d="m 128.25,-133.8314 c 0,0 0,25.4181 0,25.4181" style="fill:none;stroke:#5f9ea0"/><polygon id="polygon22422" points="131.75 -133.831 124.75 -133.831 128.25 -143.831" style="fill:#5f9ea0;stroke:#5f9ea0"/></g><g id="edge23" class="edge" transform="translate(4,500)"><title id="title22425">pubsubtypes-&gt;pubsub</title><path id="path22427" d="m 71.75,-133.7623 c 0,0 0,115.7623 0,115.7623 0,0 24.9514,0 47.3686,0" style="fill:none;stroke:#9370db"/><polygon id="polygon22429" points="75.25 -133.762 68.25 -133.762 71.75 -143.762" style="fill:#9370db;stroke:#9370db"/></g><g id="node6" class="node" transform="translate(4,500)"><title id="title22432">dbtypes</title><path id="path22434" d="m 293,-396 c 0,0 -72,0 -72,0 -6,0 -12,6 -12,12 0,0 0,12 0,12 0,6 6,12 12,12 0,0 72,0 72,0 6,0 12,-6 12,-12 0,0 0,-12 0,-12 0,-6 -6,-12 -12,-12" style="fill:#9370db;stroke:#000"/><text id="text22436" x="257" y="-374.3" font-size="14" style="font-size:14px;font-family:Times,serif;text-anchor:middle;fill:#000">db/dbtypes</text></g><g id="edge10" class="edge" transform="translate(4,500)"><title id="title22439">dbtypes-&gt;apitypes</title><path id="path22441" d="m 278.5,-349.8314 c 0,0 0,25.4181 0,25.4181" style="fill:none;stroke:orchid"/><polygon id="polygon22443" points="282 -349.831 275 -349.831 278.5 -359.831" style="fill:orchid;stroke:orchid"/></g><g id="node8" class="node" transform="translate(4,500)"><title id="title22446">dbcache</title><path id="path22448" d="m 423,-180 c 0,0 -56,0 -56,0 -6,0 -12,6 -12,12 0,0 0,12 0,12 0,6 6,12 12,12 0,0 56,0 56,0 6,0 12,-6 12,-12 0,0 0,-12 0,-12 0,-6 -6,-12 -12,-12" style="fill:#c71585;stroke:#000"/><text id="text22450" x="395" y="-158.3" font-size="14" style="font-size:14px;font-family:Times,serif;text-anchor:middle;fill:#000">db/cache</text></g><g id="edge5" class="edge" transform="translate(4,500)"><title id="title22453">dbtypes-&gt;dbcache</title><path id="path22455" d="m 315.2657,-378 c 0,0 79.7343,0 79.7343,0 0,0 0,146.0421 0,197.9555" style="fill:none;stroke:#deb887"/><polygon id="polygon22457" points="315.266 -381.5 315.266 -374.5 305.266 -378" style="fill:#deb887;stroke:#deb887"/></g><g id="node12" class="node" transform="translate(4,500)"><title id="title22460">gov</title><path id="path22462" d="m 222,-324 c 0,0 -30,0 -30,0 -6,0 -12,6 -12,12 0,0 0,12 0,12 0,6 6,12 12,12 0,0 30,0 30,0 6,0 12,-6 12,-12 0,0 0,-12 0,-12 0,-6 -6,-12 -12,-12" style="fill:#00fa9a;stroke:#000"/><text id="text22464" x="207" y="-302.3" font-size="14" style="font-size:14px;font-family:Times,serif;text-anchor:middle;fill:#000">gov</text></g><g id="edge19" class="edge" transform="translate(4,500)"><title id="title22467">dbtypes-&gt;gov</title><path id="path22469" d="m 221.5,-349.8314 c 0,0 0,25.4181 0,25.4181" style="fill:none;stroke:#3a5fcd"/><polygon id="polygon22471" points="225 -349.831 218 -349.831 221.5 -359.831" style="fill:#3a5fcd;stroke:#3a5fcd"/></g><g id="node7" class="node" transform="translate(4,500)"><title id="title22474">dcrpg</title><path id="path22476" d="m 413,-36 c 0,0 -56,0 -56,0 -6,0 -12,6 -12,12 0,0 0,12 0,12 0,6 6,12 12,12 0,0 56,0 56,0 6,0 12,-6 12,-12 0,0 0,-12 0,-12 0,-6 -6,-12 -12,-12" style="fill:#20b2aa;stroke:#000"/><text id="text22478" x="385" y="-14.3" font-size="14" style="font-size:14px;font-family:Times,serif;text-anchor:middle;fill:#000">db/dcrpg</text></g><g id="edge3" class="edge" transform="translate(4,500)"><title id="title22481">dbcache-&gt;dcrpg</title><path id="path22483" d="m 445.1348,-162 c 0,0 24.8652,0 24.8652,0 0,0 0,144 0,144 0,0 -22.9426,0 -44.989,0" style="fill:none;stroke:#5f9ea0"/><polygon id="polygon22485" points="445.135 -165.5 445.135 -158.5 435.135 -162" style="fill:#5f9ea0;stroke:#5f9ea0"/></g><g id="node9" class="node" transform="translate(4,500)"><title id="title22488">blockdata</title><path id="path22490" d="m 288,-108 c 0,0 -62,0 -62,0 -6,0 -12,6 -12,12 0,0 0,12 0,12 0,6 6,12 12,12 0,0 62,0 62,0 6,0 12,-6 12,-12 0,0 0,-12 0,-12 0,-6 -6,-12 -12,-12" style="fill:#deb887;stroke:#000"/><text id="text22492" x="257" y="-86.3" font-size="14" style="font-size:14px;font-family:Times,serif;text-anchor:middle;fill:#000">blockdata</text></g><g id="edge21" class="edge" transform="translate(4,500)"><title id="title22495">blockdata-&gt;pubsub</title><path id="path22497" d="m 203.8172,-96 c 0,0 -2.3172,0 -2.3172,0 0,0 0,78 0,78 0,0 -5.6128,0 -12.9796,0" style="fill:none;stroke:coral"/><polygon id="polygon22499" points="203.817 -92.5 203.817 -99.5 213.817 -96" style="fill:coral;stroke:coral"/></g><g id="edge2" class="edge" transform="translate(4,500)"><title id="title22509">blockdata-&gt;dcrpg</title><path id="path22511" d="m 310.1103,-96 c 0,0 3.3897,0 3.3897,0 0,0 0,78 0,78 0,0 14.9347,0 31.1529,0" style="fill:none;stroke:coral"/><polygon id="polygon22513" points="310.11 -99.5 310.11 -92.5 300.11 -96" style="fill:coral;stroke:coral"/></g><g id="edge17" class="edge" transform="translate(4,500)"><title id="title22516">rpcutils-&gt;mempool</title><path id="path22518" d="m 277.8333,-205.5782 c 0,0 0,7.5782 0,7.5782 0,0 -108.5833,0 -108.5833,0 0,0 0,58.8664 0,89.6793" style="fill:none;stroke:#7fffd4"/><polygon id="polygon22520" points="281.333 -205.578 274.333 -205.578 277.833 -215.578" style="fill:#7fffd4;stroke:#7fffd4"/></g><g id="node11" class="node" transform="translate(4,500)"><title id="title22523">stakedb</title><path id="path22525" d="m 306.5,-180 c 0,0 -49,0 -49,0 -6,0 -12,6 -12,12 0,0 0,12 0,12 0,6 6,12 12,12 0,0 49,0 49,0 6,0 12,-6 12,-12 0,0 0,-12 0,-12 0,-6 -6,-12 -12,-12" style="fill:#00bfff;stroke:#000"/><text id="text22527" x="282" y="-158.3" font-size="14" style="font-size:14px;font-family:Times,serif;text-anchor:middle;fill:#000">stakedb</text></g><g id="edge11" class="edge" transform="translate(4,500)"><title id="title22530">rpcutils-&gt;stakedb</title><path id="path22532" d="m 298.1667,-205.8314 c 0,0 0,25.4181 0,25.4181" style="fill:none;stroke:#5f9ea0"/><polygon id="polygon22534" points="301.667 -205.831 294.667 -205.831 298.167 -215.831" style="fill:#5f9ea0;stroke:#5f9ea0"/></g><g id="edge8" class="edge" transform="translate(4,500)"><title id="title22537">stakedb-&gt;blockdata</title><path id="path22539" d="m 272.75,-133.8314 c 0,0 0,25.4181 0,25.4181" style="fill:none;stroke:#7fff00"/><polygon id="polygon22541" points="276.25 -133.831 269.25 -133.831 272.75 -143.831" style="fill:#7fff00;stroke:#7fff00"/></g><g id="node13" class="node" transform="translate(4,500)"><title id="title22544">dcrrates</title><path id="path22546" d="m 142.5,-396 c 0,0 -53,0 -53,0 -6,0 -12,6 -12,12 0,0 0,12 0,12 0,6 6,12 12,12 0,0 53,0 53,0 6,0 12,-6 12,-12 0,0 0,-12 0,-12 0,-6 -6,-12 -12,-12" style="fill:gold;stroke:#000"/><text id="text22548" x="116" y="-374.3" font-size="14" style="font-size:14px;font-family:Times,serif;text-anchor:middle;fill:#000">dcrrates</text></g><g id="node15" class="node" transform="translate(4,500)"><title id="title22551">exchanges</title><path id="path22553" d="m 150,-324 c 0,0 -68,0 -68,0 -6,0 -12,6 -12,12 0,0 0,12 0,12 0,6 6,12 12,12 0,0 68,0 68,0 6,0 12,-6 12,-12 0,0 0,-12 0,-12 0,-6 -6,-12 -12,-12" style="fill:#708090;stroke:#000"/><text id="text22555" x="116" y="-302.3" font-size="14" style="font-size:14px;font-family:Times,serif;text-anchor:middle;fill:#000">exchanges</text></g><g id="edge9" class="edge" transform="translate(4,500)"><title id="title22558">dcrrates-&gt;exchanges</title><path id="path22560" d="m 116,-349.8314 c 0,0 0,25.4181 0,25.4181" style="fill:none;stroke:orchid"/><polygon id="polygon22562" points="119.5 -349.831 112.5 -349.831 116 -359.831" style="fill:orchid;stroke:orchid"/></g><g id="node14" class="node" transform="translate(4,500)"><title id="title22565">txhelpers</title><path id="path22567" d="m 161,-468 c 0,0 -60,0 -60,0 -6,0 -12,6 -12,12 0,0 0,12 0,12 0,6 6,12 12,12 0,0 60,0 60,0 6,0 12,-6 12,-12 0,0 0,-12 0,-12 0,-6 -6,-12 -12,-12" style="fill:orchid;stroke:#000"/><text id="text22569" x="131" y="-446.3" font-size="14" style="font-size:14px;font-family:Times,serif;text-anchor:middle;fill:#000">txhelpers</text></g><g id="edge12" class="edge" transform="translate(4,500)"><title id="title22572">txhelpers-&gt;dbtypes</title><path id="path22574" d="m 167.5,-421.8314 c 0,0 0,43.8314 0,43.8314 0,0 20.1602,0 41.3442,0" style="fill:none;stroke:#3a5fcd"/><polygon id="polygon22576" points="171 -421.831 164 -421.831 167.5 -431.831" style="fill:#3a5fcd;stroke:#3a5fcd"/></g><g id="node16" class="node" transform="translate(4,500)"><title id="title22579">exptypes</title><path id="path22581" d="m 108,-252 c 0,0 -96,0 -96,0 -6,0 -12,6 -12,12 0,0 0,12 0,12 0,6 6,12 12,12 0,0 96,0 96,0 6,0 12,-6 12,-12 0,0 0,-12 0,-12 0,-6 -6,-12 -12,-12" style="fill:#7fff00;stroke:#000"/><text id="text22583" x="60" y="-230.3" font-size="14" style="font-size:14px;font-family:Times,serif;text-anchor:middle;fill:#000">explorer/types</text></g><g id="edge7" class="edge" transform="translate(4,500)"><title id="title22586">txhelpers-&gt;exptypes</title><path id="path22588" d="m 78.893,-450 c 0,0 -43.893,0 -43.893,0 0,0 0,146.0421 0,197.9555" style="fill:none;stroke:#00fa9a"/><polygon id="polygon22590" points="78.893 -446.5 78.893 -453.5 88.893 -450" style="fill:#00fa9a;stroke:#00fa9a"/></g><g id="edge6" class="edge" transform="translate(4,500)"><title id="title22593">exchanges-&gt;exptypes</title><path id="path22595" d="m 95,-277.8314 c 0,0 0,25.4181 0,25.4181" style="fill:none;stroke:#1e90ff"/><polygon id="polygon22597" points="98.5 -277.831 91.5 -277.831 95 -287.831" style="fill:#1e90ff;stroke:#1e90ff"/></g><g id="edge20" class="edge" transform="translate(4,500)"><title id="title22600">exptypes-&gt;pubsubtypes</title><path id="path22602" d="m 74.75,-205.8314 c 0,0 0,25.4181 0,25.4181" style="fill:none;stroke:#5f9ea0"/><polygon id="polygon22604" points="78.25 -205.831 71.25 -205.831 74.75 -215.831" style="fill:#5f9ea0;stroke:#5f9ea0"/></g><g id="node18" class="node" transform="translate(4,500)"><title id="title22607">dbconfig</title><path id="path22609" d="m 440,-108 c 0,0 -110,0 -110,0 -6,0 -12,6 -12,12 0,0 0,12 0,12 0,6 6,12 12,12 0,0 110,0 110,0 6,0 12,-6 12,-12 0,0 0,-12 0,-12 0,-6 -6,-12 -12,-12" style="fill:#5f9ea0;stroke:#000"/><text id="text22611" x="385" y="-86.3" font-size="14" style="font-size:14px;font-family:Times,serif;text-anchor:middle;fill:#000">testutil/dbconfig</text></g><g id="edge4" class="edge" transform="translate(4,500)"><title id="title22621">dbconfig-&gt;dcrpg</title><path id="path22623" d="m 385,-61.8314 c 0,0 0,25.4181 0,25.4181" style="fill:none;stroke:#00fa9a"/><polygon id="polygon22625" points="388.5 -61.831 381.5 -61.831 385 -71.831" style="fill:#00fa9a;stroke:#00fa9a"/></g></g></svg>